<svg xmlns="http://www.w3.org/2000/svg" viewBox="0 0 1400 900" preserveAspectRatio="xMidYMid slice" aria-hidden="true">
  <defs>
    <filter id="soft" x="-20%" y="-20%" width="140%" height="140%">
      <feGaussianBlur stdDeviation="48"/>
    </filter>
    <linearGradient id="leaf" x1="0" y1="0" x2="1" y2="1">
      <stop offset="0" stop-color="#4a5d4e"/>
      <stop offset="1" stop-color="#8aa07a"/>
    </linearGradient>
  </defs>
  <g filter="url(#soft)" opacity="0.55">
    <circle cx="180" cy="80" r="260" fill="#e7b39a"/>
    <circle cx="420" cy="40" r="170" fill="#d98b8b"/>
    <circle cx="1180" cy="160" r="300" fill="#9fb89a"/>
    <circle cx="980" cy="60" r="160" fill="#d4c07a"/>
    <circle cx="160" cy="760" r="240" fill="#8aa8b8"/>
    <circle cx="520" cy="860" r="200" fill="#c9a07c"/>
    <circle cx="1280" cy="780" r="220" fill="#c4b3d4"/>
  </g>
  <g fill="none" stroke="#4a5d4e" stroke-width="1.15" opacity="0.28">
    <path d="M90 720c80-40 120-140 92-250"/>
    <path d="M182 470c-70-10-120 40-148 110"/>
    <path d="M182 470c60-30 110-20 150 40"/>
    <path d="M128 560c-36-8-70 18-88 52"/>
    <path d="M210 530c40-6 78 22 92 58"/>
    <path d="M1180 120c-40 90-20 170 40 230"/>
    <path d="M1220 350c70 10 110-40 130-100"/>
    <path d="M1220 350c-80 20-110 80-96 150"/>
    <path d="M1264 430c48 8 86-18 108-56"/>
  </g>
  <g fill="#4a5d4e" opacity="0.12">
    <ellipse cx="70" cy="610" rx="28" ry="64" transform="rotate(-28 70 610)"/>
    <ellipse cx="150" cy="520" rx="24" ry="58" transform="rotate(18 150 520)"/>
    <ellipse cx="248" cy="500" rx="22" ry="50" transform="rotate(38 248 500)"/>
    <ellipse cx="1298" cy="250" rx="26" ry="62" transform="rotate(24 1298 250)"/>
    <ellipse cx="1148" cy="310" rx="22" ry="54" transform="rotate(-30 1148 310)"/>
    <ellipse cx="1238" cy="430" rx="20" ry="48" transform="rotate(12 1238 430)"/>
  </g>
</svg>
